REM DIRINDEX 1\2,1\3
REM DIRNAME folder01,folder02,folder03
TITLE ""
FILE "Track62.mp3" MP3
  TRACK 01 AUDIO
    TITLE "0:"
    INDEX 01 00:00:00
  TRACK 02 AUDIO
    TITLE "3:cjc140_222"
    INDEX 01 00:00:05
  TRACK 03 AUDIO
    TITLE "2:cjc140_223"
    INDEX 01 00:02:10
  TRACK 04 AUDIO
    TITLE "2:cjc140_224"
    INDEX 01 00:06:37
  TRACK 05 AUDIO
    TITLE "2:cjc140_225"
    INDEX 01 00:08:56
  TRACK 06 AUDIO
    TITLE "0:"
    INDEX 01 00:24:59
